<!-- Generated by graphviz version 2.38.0 (20140413.2041)
 -->
<!-- Title: OpenFurryDeployment Pages: 1 -->
<svg width="664pt" height="332pt"
 viewBox="0.00 0.00 664.25 332.00" xmlns="http://www.w3.org/2000/svg" xmlns:xlink="http://www.w3.org/1999/xlink">
<g id="graph0" class="graph" transform="scale(1 1) rotate(0) translate(4 328)">
<title>OpenFurryDeployment</title>
<polygon fill="white" stroke="none" points="-4,4 -4,-328 660.246,-328 660.246,4 -4,4"/>
<!-- Apache -->
<g id="node1" class="node"><title>Apache</title>
<g id="a_node1"><a xlink:href="https://jujucharms.com/apache2/" xlink:title="Apache">
<ellipse fill="none" stroke="black" cx="500.203" cy="-306" rx="40.2009" ry="18"/>
<text text-anchor="middle" x="500.203" y="-301.8" font-family="Marcellus" font-size="14.00">Apache</text>
</a>
</g>
</g>
<!-- Masq -->
<g id="node2" class="node"><title>Masq</title>
<g id="a_node2"><a xlink:href="https://github.com/dennisreimann/masq" xlink:title="Masq">
<ellipse fill="none" stroke="black" cx="258.203" cy="-234" rx="31.9654" ry="18"/>
<text text-anchor="middle" x="258.203" y="-229.8" font-family="Marcellus" font-size="14.00">Masq</text>
</a>
</g>
</g>
<!-- Apache&#45;&#45;Masq -->
<g id="edge1" class="edge"><title>Apache&#45;&#45;Masq</title>
<path fill="none" stroke="black" d="M464.919,-297.223C424.444,-287.952 356.307,-271.269 299.203,-252 293.8,-250.177 288.095,-247.987 282.713,-245.795"/>
</g>
<!-- Kibana -->
<g id="node4" class="node"><title>Kibana</title>
<g id="a_node4"><a xlink:href="https://jujucharms.com/kibana/" xlink:title="Kibana">
<ellipse fill="none" stroke="black" cx="604.203" cy="-234" rx="37.7872" ry="18"/>
<text text-anchor="middle" x="604.203" y="-229.8" font-family="Marcellus" font-size="14.00">Kibana</text>
</a>
</g>
</g>
<!-- Apache&#45;&#45;Kibana -->
<g id="edge3" class="edge"><title>Apache&#45;&#45;Kibana</title>
<path fill="none" stroke="black" d="M521.5,-290.666C539.565,-278.506 565.334,-261.162 583.29,-249.076"/>
</g>
<!-- Logstash -->
<g id="node5" class="node"><title>Logstash</title>
<g id="a_node5"><a xlink:href="https://jujucharms.com/logstash/" xlink:title="Logstash">
<ellipse fill="none" stroke="black" cx="361.203" cy="-18" rx="45.9977" ry="18"/>
<text text-anchor="middle" x="361.203" y="-13.8" font-family="Marcellus" font-size="14.00">Logstash</text>
</a>
</g>
</g>
<!-- Apache&#45;&#45;Logstash -->
<g id="edge5" class="edge"><title>Apache&#45;&#45;Logstash</title>
<path fill="none" stroke="black" d="M539.851,-303.243C575.55,-299.306 626.139,-287.36 651.203,-252 660.455,-238.947 654.387,-231.68 651.203,-216 637.37,-147.885 643.418,-116.711 590.203,-72 562.474,-48.7025 463.106,-32.2325 404.773,-24.3223"/>
</g>
<!-- Honeycomb -->
<g id="node6" class="node"><title>Honeycomb</title>
<g id="a_node6"><a xlink:href="https://github.com/OpenFurry/honeycomb" xlink:title="Honeycomb">
<ellipse fill="none" stroke="black" cx="211.203" cy="-162" rx="57.0907" ry="18"/>
<text text-anchor="middle" x="211.203" y="-157.8" font-family="Marcellus" font-size="14.00">Honeycomb</text>
</a>
</g>
</g>
<!-- Apache&#45;&#45;Honeycomb -->
<g id="edge10" class="edge"><title>Apache&#45;&#45;Honeycomb</title>
<path fill="none" stroke="black" d="M460.315,-303.356C390.096,-299.561 248.829,-287.59 217.203,-252 199.818,-232.436 202.772,-199.916 206.787,-180.072"/>
</g>
<!-- Characters -->
<g id="node7" class="node"><title>Characters</title>
<g id="a_node7"><a xlink:href="https://github.com/OpenFurry/charref" xlink:title="Characters">
<ellipse fill="none" stroke="black" cx="538.203" cy="-162" rx="53.2142" ry="18"/>
<text text-anchor="middle" x="538.203" y="-157.8" font-family="Marcellus" font-size="14.00">Characters</text>
</a>
</g>
</g>
<!-- Apache&#45;&#45;Characters -->
<g id="edge11" class="edge"><title>Apache&#45;&#45;Characters</title>
<path fill="none" stroke="black" d="M504.786,-287.871C512.09,-260.578 526.289,-207.52 533.603,-180.189"/>
</g>
<!-- Characters&#45;legacy -->
<g id="node8" class="node"><title>Characters&#45;legacy</title>
<g id="a_node8"><a xlink:href="https://characters.openfurry.org" xlink:title="Characters&#45;legacy">
<ellipse fill="none" stroke="black" cx="390.203" cy="-234" rx="81.7302" ry="18"/>
<text text-anchor="middle" x="390.203" y="-229.8" font-family="Marcellus" font-size="14.00">Characters&#45;legacy</text>
</a>
</g>
</g>
<!-- Apache&#45;&#45;Characters&#45;legacy -->
<g id="edge12" class="edge"><title>Apache&#45;&#45;Characters&#45;legacy</title>
<path fill="none" stroke="black" d="M477.943,-290.834C459.988,-279.409 434.715,-263.326 415.902,-251.354"/>
</g>
<!-- IdeaWheel -->
<g id="node9" class="node"><title>IdeaWheel</title>
<g id="a_node9"><a xlink:href="https://github.com/OpenFurry/ideawheel" xlink:title="IdeaWheel">
<ellipse fill="none" stroke="black" cx="414.203" cy="-162" rx="52.2709" ry="18"/>
<text text-anchor="middle" x="414.203" y="-157.8" font-family="Marcellus" font-size="14.00">IdeaWheel</text>
</a>
</g>
</g>
<!-- Apache&#45;&#45;IdeaWheel -->
<g id="edge13" class="edge"><title>Apache&#45;&#45;IdeaWheel</title>
<path fill="none" stroke="black" d="M499.941,-287.995C498.924,-269.086 495.044,-238.278 481.203,-216 471.262,-200.001 454.695,-186.832 440.523,-177.623"/>
</g>
<!-- Postgres -->
<g id="node3" class="node"><title>Postgres</title>
<g id="a_node3"><a xlink:href="https://jujucharms.com/postgresql/" xlink:title="Postgres">
<ellipse fill="none" stroke="black" cx="361.203" cy="-90" rx="45.0114" ry="18"/>
<text text-anchor="middle" x="361.203" y="-85.8" font-family="Marcellus" font-size="14.00">Postgres</text>
</a>
</g>
</g>
<!-- Masq&#45;&#45;Postgres -->
<g id="edge2" class="edge"><title>Masq&#45;&#45;Postgres</title>
<path fill="none" stroke="black" d="M269.818,-216.987C289.495,-189.86 329.186,-135.139 349.153,-107.612"/>
</g>
<!-- Masq&#45;&#45;Logstash -->
<g id="edge6" class="edge"><title>Masq&#45;&#45;Logstash</title>
<path fill="none" stroke="black" d="M228.998,-226.719C150.471,-208.586 -54.7418,-152.274 14.2027,-72 52.4694,-27.4447 229.827,-19.9376 315.131,-18.9478"/>
</g>
<!-- Masq&#45;&#45;Honeycomb -->
<g id="edge7" class="edge"><title>Masq&#45;&#45;Honeycomb</title>
<path fill="none" stroke="black" d="M247.302,-216.765C239.926,-205.779 230.199,-191.292 222.7,-180.124"/>
</g>
<!-- Masq&#45;&#45;Characters -->
<g id="edge8" class="edge"><title>Masq&#45;&#45;Characters</title>
<path fill="none" stroke="black" d="M282.203,-222.151C287.715,-219.912 293.604,-217.716 299.203,-216 375.539,-192.603 397.512,-198.409 475.203,-180 482.699,-178.224 490.657,-176.192 498.304,-174.165"/>
</g>
<!-- Masq&#45;&#45;IdeaWheel -->
<g id="edge9" class="edge"><title>Masq&#45;&#45;IdeaWheel</title>
<path fill="none" stroke="black" d="M282.236,-222.216C309.5,-209.982 354.018,-190.006 383.707,-176.684"/>
</g>
<!-- Postgres&#45;&#45;Logstash -->
<g id="edge21" class="edge"><title>Postgres&#45;&#45;Logstash</title>
<path fill="none" stroke="black" d="M361.203,-71.6966C361.203,-60.8463 361.203,-46.9167 361.203,-36.1043"/>
</g>
<!-- Kibana&#45;&#45;Logstash -->
<g id="edge4" class="edge"><title>Kibana&#45;&#45;Logstash</title>
<path fill="none" stroke="black" d="M605.697,-215.902C607.588,-182.116 606.303,-107.046 562.203,-72 517.421,-36.4124 451.041,-24.5755 406.974,-20.7212"/>
</g>
<!-- Honeycomb&#45;&#45;Postgres -->
<g id="edge24" class="edge"><title>Honeycomb&#45;&#45;Postgres</title>
<path fill="none" stroke="black" d="M241.919,-146.666C268.662,-134.186 307.106,-116.245 333.06,-104.133"/>
</g>
<!-- Honeycomb&#45;&#45;Logstash -->
<g id="edge17" class="edge"><title>Honeycomb&#45;&#45;Logstash</title>
<path fill="none" stroke="black" d="M158.659,-154.583C90.8715,-144.232 -13.7541,-119.968 27.2027,-72 63.7061,-29.2474 232.495,-20.7993 315.231,-19.2562"/>
</g>
<!-- Gunicorn -->
<g id="node10" class="node"><title>Gunicorn</title>
<g id="a_node10"><a xlink:href="https://jujucharms.com/gunicorn/s" xlink:title="Gunicorn">
<polygon fill="none" stroke="black" points="534.51,-108 461.896,-108 461.896,-72 534.51,-72 534.51,-108"/>
<text text-anchor="middle" x="498.203" y="-85.8" font-family="Marcellus" font-size="14.00">Gunicorn</text>
</a>
</g>
</g>
<!-- Honeycomb&#45;&#45;Gunicorn -->
<g id="edge14" class="edge"><title>Honeycomb&#45;&#45;Gunicorn</title>
<path fill="none" stroke="black" d="M255.104,-150.292C311.634,-136.505 408.853,-112.793 461.594,-99.9289"/>
</g>
<!-- ElasticSearch -->
<g id="node11" class="node"><title>ElasticSearch</title>
<g id="a_node11"><a xlink:href="https://jujucharms.com/elasticsearch/" xlink:title="ElasticSearch">
<ellipse fill="none" stroke="black" cx="100.203" cy="-90" rx="64.3479" ry="18"/>
<text text-anchor="middle" x="100.203" y="-85.8" font-family="Marcellus" font-size="14.00">ElasticSearch</text>
</a>
</g>
</g>
<!-- Honeycomb&#45;&#45;ElasticSearch -->
<g id="edge25" class="edge"><title>Honeycomb&#45;&#45;ElasticSearch</title>
<path fill="none" stroke="black" d="M186.843,-145.638C168.591,-134.128 143.696,-118.428 125.274,-106.811"/>
</g>
<!-- Memcached -->
<g id="node12" class="node"><title>Memcached</title>
<g id="a_node12"><a xlink:href="https://jujucharms.com/memcached/" xlink:title="Memcached">
<ellipse fill="none" stroke="black" cx="240.203" cy="-90" rx="58.0513" ry="18"/>
<text text-anchor="middle" x="240.203" y="-85.8" font-family="Marcellus" font-size="14.00">Memcached</text>
</a>
</g>
</g>
<!-- Honeycomb&#45;&#45;Memcached -->
<g id="edge23" class="edge"><title>Honeycomb&#45;&#45;Memcached</title>
<path fill="none" stroke="black" d="M218.223,-144.055C222.715,-133.211 228.527,-119.183 233.046,-108.275"/>
</g>
<!-- Characters&#45;&#45;Postgres -->
<g id="edge26" class="edge"><title>Characters&#45;&#45;Postgres</title>
<path fill="none" stroke="black" d="M504.91,-147.834C472.464,-135.002 423.535,-115.651 391.977,-103.171"/>
</g>
<!-- Characters&#45;&#45;Logstash -->
<g id="edge18" class="edge"><title>Characters&#45;&#45;Logstash</title>
<path fill="none" stroke="black" d="M545.1,-144.052C551.777,-124.626 558.807,-92.7961 543.203,-72 526.414,-49.6249 451.665,-33.5949 403.337,-25.3498"/>
</g>
<!-- Characters&#45;&#45;Gunicorn -->
<g id="edge15" class="edge"><title>Characters&#45;&#45;Gunicorn</title>
<path fill="none" stroke="black" d="M528.52,-144.055C522.323,-133.211 514.307,-119.183 508.074,-108.275"/>
</g>
<!-- Characters&#45;legacy&#45;&#45;Postgres -->
<g id="edge27" class="edge"><title>Characters&#45;legacy&#45;&#45;Postgres</title>
<path fill="none" stroke="black" d="M374.551,-216.314C366.475,-206.538 357.445,-193.488 353.203,-180 345.616,-155.878 350.934,-126.392 355.799,-108.152"/>
</g>
<!-- IdeaWheel&#45;&#45;Postgres -->
<g id="edge28" class="edge"><title>IdeaWheel&#45;&#45;Postgres</title>
<path fill="none" stroke="black" d="M401.642,-144.411C393.194,-133.252 382.103,-118.604 373.673,-107.47"/>
</g>
<!-- IdeaWheel&#45;&#45;Logstash -->
<g id="edge19" class="edge"><title>IdeaWheel&#45;&#45;Logstash</title>
<path fill="none" stroke="black" d="M418.297,-143.832C421.841,-125.321 425.01,-95.3673 415.203,-72 408.696,-56.496 395.196,-43.246 383.322,-33.872"/>
</g>
<!-- IdeaWheel&#45;&#45;Gunicorn -->
<g id="edge16" class="edge"><title>IdeaWheel&#45;&#45;Gunicorn</title>
<path fill="none" stroke="black" d="M433.264,-145.116C446.527,-134.063 464.192,-119.342 477.75,-108.044"/>
</g>
<!-- ElasticSearch&#45;&#45;Logstash -->
<g id="edge22" class="edge"><title>ElasticSearch&#45;&#45;Logstash</title>
<path fill="none" stroke="black" d="M144.774,-77.0461C195.441,-63.4572 277.217,-41.5249 324.407,-28.8687"/>
</g>
<!-- Memcached&#45;&#45;Logstash -->
<g id="edge20" class="edge"><title>Memcached&#45;&#45;Logstash</title>
<path fill="none" stroke="black" d="M266.458,-73.811C287.171,-61.8284 315.868,-45.2265 336.239,-33.4417"/>
</g>
</g>
</svg>
