<!-- Generated by graphviz version 2.38.0 (20140413.2041)
 -->
<!-- Title: OpenFurryDeployment Pages: 1 -->
<svg width="664pt" height="332pt"
 viewBox="0.00 0.00 664.02 332.00" xmlns="http://www.w3.org/2000/svg" xmlns:xlink="http://www.w3.org/1999/xlink">
<g id="graph0" class="graph" transform="scale(1 1) rotate(0) translate(4 328)">
<title>OpenFurryDeployment</title>
<polygon fill="white" stroke="none" points="-4,4 -4,-328 660.018,-328 660.018,4 -4,4"/>
<!-- Apache -->
<g id="node1" class="node"><title>Apache</title>
<g id="a_node1"><a xlink:href="https://jujucharms.com/apache2/" xlink:title="Apache">
<ellipse fill="none" stroke="black" cx="499.975" cy="-306" rx="40.2009" ry="18"/>
<text text-anchor="middle" x="499.975" y="-301.8" font-family="Marcellus" font-size="14.00">Apache</text>
</a>
</g>
</g>
<!-- OFAuth -->
<g id="node2" class="node"><title>OFAuth</title>
<g id="a_node2"><a xlink:href="https://github.com/OpenFurry/OFAuth" xlink:title="OFAuth">
<ellipse fill="none" stroke="black" cx="249.975" cy="-234" rx="40.1923" ry="18"/>
<text text-anchor="middle" x="249.975" y="-229.8" font-family="Marcellus" font-size="14.00">OFAuth</text>
</a>
</g>
</g>
<!-- Apache&#45;&#45;OFAuth -->
<g id="edge1" class="edge"><title>Apache&#45;&#45;OFAuth</title>
<path fill="none" stroke="black" d="M465.249,-296.697C425.002,-286.876 356.796,-269.626 298.975,-252 292.859,-250.136 286.367,-247.998 280.177,-245.882"/>
</g>
<!-- Kibana -->
<g id="node4" class="node"><title>Kibana</title>
<g id="a_node4"><a xlink:href="https://jujucharms.com/kibana/" xlink:title="Kibana">
<ellipse fill="none" stroke="black" cx="603.975" cy="-234" rx="37.7872" ry="18"/>
<text text-anchor="middle" x="603.975" y="-229.8" font-family="Marcellus" font-size="14.00">Kibana</text>
</a>
</g>
</g>
<!-- Apache&#45;&#45;Kibana -->
<g id="edge3" class="edge"><title>Apache&#45;&#45;Kibana</title>
<path fill="none" stroke="black" d="M521.272,-290.666C539.337,-278.506 565.106,-261.162 583.062,-249.076"/>
</g>
<!-- Logstash -->
<g id="node5" class="node"><title>Logstash</title>
<g id="a_node5"><a xlink:href="https://jujucharms.com/logstash/" xlink:title="Logstash">
<ellipse fill="none" stroke="black" cx="360.975" cy="-18" rx="45.9977" ry="18"/>
<text text-anchor="middle" x="360.975" y="-13.8" font-family="Marcellus" font-size="14.00">Logstash</text>
</a>
</g>
</g>
<!-- Apache&#45;&#45;Logstash -->
<g id="edge5" class="edge"><title>Apache&#45;&#45;Logstash</title>
<path fill="none" stroke="black" d="M539.623,-303.243C575.322,-299.306 625.911,-287.36 650.975,-252 660.227,-238.947 654.159,-231.68 650.975,-216 637.142,-147.885 643.19,-116.711 589.975,-72 562.246,-48.7025 462.878,-32.2325 404.545,-24.3223"/>
</g>
<!-- Honeycomb -->
<g id="node6" class="node"><title>Honeycomb</title>
<g id="a_node6"><a xlink:href="https://github.com/OpenFurry/honeycomb" xlink:title="Honeycomb">
<ellipse fill="none" stroke="black" cx="210.975" cy="-162" rx="57.0907" ry="18"/>
<text text-anchor="middle" x="210.975" y="-157.8" font-family="Marcellus" font-size="14.00">Honeycomb</text>
</a>
</g>
</g>
<!-- Apache&#45;&#45;Honeycomb -->
<g id="edge10" class="edge"><title>Apache&#45;&#45;Honeycomb</title>
<path fill="none" stroke="black" d="M459.928,-304.012C386.211,-301.259 233.573,-290.885 200.975,-252 184.093,-231.863 193.859,-199.526 202.446,-179.873"/>
</g>
<!-- Characters -->
<g id="node7" class="node"><title>Characters</title>
<g id="a_node7"><a xlink:href="https://github.com/OpenFurry/charref" xlink:title="Characters">
<ellipse fill="none" stroke="black" cx="537.975" cy="-162" rx="53.2142" ry="18"/>
<text text-anchor="middle" x="537.975" y="-157.8" font-family="Marcellus" font-size="14.00">Characters</text>
</a>
</g>
</g>
<!-- Apache&#45;&#45;Characters -->
<g id="edge11" class="edge"><title>Apache&#45;&#45;Characters</title>
<path fill="none" stroke="black" d="M504.558,-287.871C511.862,-260.578 526.061,-207.52 533.375,-180.189"/>
</g>
<!-- Characters&#45;legacy -->
<g id="node8" class="node"><title>Characters&#45;legacy</title>
<g id="a_node8"><a xlink:href="https://characters.openfurry.org" xlink:title="Characters&#45;legacy">
<ellipse fill="none" stroke="black" cx="389.975" cy="-234" rx="81.7302" ry="18"/>
<text text-anchor="middle" x="389.975" y="-229.8" font-family="Marcellus" font-size="14.00">Characters&#45;legacy</text>
</a>
</g>
</g>
<!-- Apache&#45;&#45;Characters&#45;legacy -->
<g id="edge12" class="edge"><title>Apache&#45;&#45;Characters&#45;legacy</title>
<path fill="none" stroke="black" d="M477.714,-290.834C459.76,-279.409 434.487,-263.326 415.674,-251.354"/>
</g>
<!-- IdeaWheel -->
<g id="node9" class="node"><title>IdeaWheel</title>
<g id="a_node9"><a xlink:href="https://github.com/OpenFurry/ideawheel" xlink:title="IdeaWheel">
<ellipse fill="none" stroke="black" cx="413.975" cy="-162" rx="52.2709" ry="18"/>
<text text-anchor="middle" x="413.975" y="-157.8" font-family="Marcellus" font-size="14.00">IdeaWheel</text>
</a>
</g>
</g>
<!-- Apache&#45;&#45;IdeaWheel -->
<g id="edge13" class="edge"><title>Apache&#45;&#45;IdeaWheel</title>
<path fill="none" stroke="black" d="M499.713,-287.995C498.696,-269.086 494.816,-238.278 480.975,-216 471.034,-200.001 454.467,-186.832 440.295,-177.623"/>
</g>
<!-- Postgres -->
<g id="node3" class="node"><title>Postgres</title>
<g id="a_node3"><a xlink:href="https://jujucharms.com/postgresql/" xlink:title="Postgres">
<ellipse fill="none" stroke="black" cx="360.975" cy="-90" rx="45.0114" ry="18"/>
<text text-anchor="middle" x="360.975" y="-85.8" font-family="Marcellus" font-size="14.00">Postgres</text>
</a>
</g>
</g>
<!-- OFAuth&#45;&#45;Postgres -->
<g id="edge2" class="edge"><title>OFAuth&#45;&#45;Postgres</title>
<path fill="none" stroke="black" d="M262.708,-216.711C284.005,-189.465 326.622,-134.946 348.048,-107.537"/>
</g>
<!-- OFAuth&#45;&#45;Logstash -->
<g id="edge6" class="edge"><title>OFAuth&#45;&#45;Logstash</title>
<path fill="none" stroke="black" d="M215.085,-224.902C134.749,-204.724 -51.5449,-148.287 13.9746,-72 52.2413,-27.4447 229.599,-19.9376 314.903,-18.9478"/>
</g>
<!-- OFAuth&#45;&#45;Honeycomb -->
<g id="edge7" class="edge"><title>OFAuth&#45;&#45;Honeycomb</title>
<path fill="none" stroke="black" d="M240.732,-216.411C234.605,-205.414 226.59,-191.027 220.422,-179.956"/>
</g>
<!-- OFAuth&#45;&#45;Characters -->
<g id="edge8" class="edge"><title>OFAuth&#45;&#45;Characters</title>
<path fill="none" stroke="black" d="M279.838,-221.937C286.111,-219.811 292.723,-217.716 298.975,-216 375.969,-194.869 397.284,-198.409 474.975,-180 482.471,-178.224 490.429,-176.192 498.076,-174.165"/>
</g>
<!-- OFAuth&#45;&#45;IdeaWheel -->
<g id="edge9" class="edge"><title>OFAuth&#45;&#45;IdeaWheel</title>
<path fill="none" stroke="black" d="M278.167,-220.967C307.199,-208.575 352.341,-189.307 382.515,-176.428"/>
</g>
<!-- Postgres&#45;&#45;Logstash -->
<g id="edge21" class="edge"><title>Postgres&#45;&#45;Logstash</title>
<path fill="none" stroke="black" d="M360.975,-71.6966C360.975,-60.8463 360.975,-46.9167 360.975,-36.1043"/>
</g>
<!-- Kibana&#45;&#45;Logstash -->
<g id="edge4" class="edge"><title>Kibana&#45;&#45;Logstash</title>
<path fill="none" stroke="black" d="M605.469,-215.902C607.36,-182.116 606.074,-107.046 561.975,-72 517.193,-36.4124 450.813,-24.5755 406.746,-20.7212"/>
</g>
<!-- Honeycomb&#45;&#45;Postgres -->
<g id="edge24" class="edge"><title>Honeycomb&#45;&#45;Postgres</title>
<path fill="none" stroke="black" d="M241.691,-146.666C268.433,-134.186 306.878,-116.245 332.832,-104.133"/>
</g>
<!-- Honeycomb&#45;&#45;Logstash -->
<g id="edge17" class="edge"><title>Honeycomb&#45;&#45;Logstash</title>
<path fill="none" stroke="black" d="M158.431,-154.583C90.6434,-144.232 -13.9822,-119.968 26.9746,-72 63.478,-29.2474 232.267,-20.7993 315.003,-19.2562"/>
</g>
<!-- Gunicorn -->
<g id="node10" class="node"><title>Gunicorn</title>
<g id="a_node10"><a xlink:href="https://jujucharms.com/gunicorn/s" xlink:title="Gunicorn">
<polygon fill="none" stroke="black" points="534.282,-108 461.668,-108 461.668,-72 534.282,-72 534.282,-108"/>
<text text-anchor="middle" x="497.975" y="-85.8" font-family="Marcellus" font-size="14.00">Gunicorn</text>
</a>
</g>
</g>
<!-- Honeycomb&#45;&#45;Gunicorn -->
<g id="edge14" class="edge"><title>Honeycomb&#45;&#45;Gunicorn</title>
<path fill="none" stroke="black" d="M254.876,-150.292C311.405,-136.505 408.625,-112.793 461.366,-99.9289"/>
</g>
<!-- ElasticSearch -->
<g id="node11" class="node"><title>ElasticSearch</title>
<g id="a_node11"><a xlink:href="https://jujucharms.com/elasticsearch/" xlink:title="ElasticSearch">
<ellipse fill="none" stroke="black" cx="99.9746" cy="-90" rx="64.3479" ry="18"/>
<text text-anchor="middle" x="99.9746" y="-85.8" font-family="Marcellus" font-size="14.00">ElasticSearch</text>
</a>
</g>
</g>
<!-- Honeycomb&#45;&#45;ElasticSearch -->
<g id="edge25" class="edge"><title>Honeycomb&#45;&#45;ElasticSearch</title>
<path fill="none" stroke="black" d="M186.615,-145.638C168.363,-134.128 143.468,-118.428 125.046,-106.811"/>
</g>
<!-- Memcached -->
<g id="node12" class="node"><title>Memcached</title>
<g id="a_node12"><a xlink:href="https://jujucharms.com/memcached/" xlink:title="Memcached">
<ellipse fill="none" stroke="black" cx="239.975" cy="-90" rx="58.0513" ry="18"/>
<text text-anchor="middle" x="239.975" y="-85.8" font-family="Marcellus" font-size="14.00">Memcached</text>
</a>
</g>
</g>
<!-- Honeycomb&#45;&#45;Memcached -->
<g id="edge23" class="edge"><title>Honeycomb&#45;&#45;Memcached</title>
<path fill="none" stroke="black" d="M217.995,-144.055C222.487,-133.211 228.299,-119.183 232.818,-108.275"/>
</g>
<!-- Characters&#45;&#45;Postgres -->
<g id="edge26" class="edge"><title>Characters&#45;&#45;Postgres</title>
<path fill="none" stroke="black" d="M504.682,-147.834C472.236,-135.002 423.307,-115.651 391.749,-103.171"/>
</g>
<!-- Characters&#45;&#45;Logstash -->
<g id="edge18" class="edge"><title>Characters&#45;&#45;Logstash</title>
<path fill="none" stroke="black" d="M544.872,-144.052C551.549,-124.626 558.579,-92.7961 542.975,-72 526.186,-49.6249 451.437,-33.5949 403.109,-25.3498"/>
</g>
<!-- Characters&#45;&#45;Gunicorn -->
<g id="edge15" class="edge"><title>Characters&#45;&#45;Gunicorn</title>
<path fill="none" stroke="black" d="M528.292,-144.055C522.095,-133.211 514.079,-119.183 507.846,-108.275"/>
</g>
<!-- Characters&#45;legacy&#45;&#45;Postgres -->
<g id="edge27" class="edge"><title>Characters&#45;legacy&#45;&#45;Postgres</title>
<path fill="none" stroke="black" d="M374.323,-216.314C366.246,-206.538 357.217,-193.488 352.975,-180 345.388,-155.878 350.705,-126.392 355.57,-108.152"/>
</g>
<!-- IdeaWheel&#45;&#45;Postgres -->
<g id="edge28" class="edge"><title>IdeaWheel&#45;&#45;Postgres</title>
<path fill="none" stroke="black" d="M401.414,-144.411C392.966,-133.252 381.874,-118.604 373.445,-107.47"/>
</g>
<!-- IdeaWheel&#45;&#45;Logstash -->
<g id="edge19" class="edge"><title>IdeaWheel&#45;&#45;Logstash</title>
<path fill="none" stroke="black" d="M418.069,-143.832C421.613,-125.321 424.782,-95.3673 414.975,-72 408.468,-56.496 394.968,-43.246 383.094,-33.872"/>
</g>
<!-- IdeaWheel&#45;&#45;Gunicorn -->
<g id="edge16" class="edge"><title>IdeaWheel&#45;&#45;Gunicorn</title>
<path fill="none" stroke="black" d="M433.036,-145.116C446.299,-134.063 463.964,-119.342 477.522,-108.044"/>
</g>
<!-- ElasticSearch&#45;&#45;Logstash -->
<g id="edge22" class="edge"><title>ElasticSearch&#45;&#45;Logstash</title>
<path fill="none" stroke="black" d="M144.546,-77.0461C195.213,-63.4572 276.989,-41.5249 324.179,-28.8687"/>
</g>
<!-- Memcached&#45;&#45;Logstash -->
<g id="edge20" class="edge"><title>Memcached&#45;&#45;Logstash</title>
<path fill="none" stroke="black" d="M266.23,-73.811C286.943,-61.8284 315.64,-45.2265 336.011,-33.4417"/>
</g>
</g>
</svg>
