<!-- Generated by graphviz version 2.38.0 (20140413.2041)
 -->
<!-- Title: OpenFurryDeployment Pages: 1 -->
<svg width="664pt" height="332pt"
 viewBox="0.00 0.00 664.08 332.00" xmlns="http://www.w3.org/2000/svg" xmlns:xlink="http://www.w3.org/1999/xlink">
<g id="graph0" class="graph" transform="scale(1 1) rotate(0) translate(4 328)">
<title>OpenFurryDeployment</title>
<polygon fill="white" stroke="none" points="-4,4 -4,-328 660.077,-328 660.077,4 -4,4"/>
<!-- Apache -->
<g id="node1" class="node"><title>Apache</title>
<g id="a_node1"><a xlink:href="https://jujucharms.com/apache2/" xlink:title="Apache">
<ellipse fill="none" stroke="black" cx="500.034" cy="-306" rx="40.2009" ry="18"/>
<text text-anchor="middle" x="500.034" y="-301.8" font-family="Marcellus" font-size="14.00">Apache</text>
</a>
</g>
</g>
<!-- velruse -->
<g id="node2" class="node"><title>velruse</title>
<g id="a_node2"><a xlink:href="http://velruse.readthedocs.io/en/latest/index.html" xlink:title="velruse">
<ellipse fill="none" stroke="black" cx="252.034" cy="-234" rx="38.7302" ry="18"/>
<text text-anchor="middle" x="252.034" y="-229.8" font-family="Marcellus" font-size="14.00">velruse</text>
</a>
</g>
</g>
<!-- Apache&#45;&#45;velruse -->
<g id="edge1" class="edge"><title>Apache&#45;&#45;velruse</title>
<path fill="none" stroke="black" d="M465.266,-296.832C424.98,-287.138 356.738,-270.004 299.034,-252 293.153,-250.165 286.918,-248.04 280.979,-245.928"/>
</g>
<!-- Kibana -->
<g id="node4" class="node"><title>Kibana</title>
<g id="a_node4"><a xlink:href="https://jujucharms.com/kibana/" xlink:title="Kibana">
<ellipse fill="none" stroke="black" cx="604.034" cy="-234" rx="37.7872" ry="18"/>
<text text-anchor="middle" x="604.034" y="-229.8" font-family="Marcellus" font-size="14.00">Kibana</text>
</a>
</g>
</g>
<!-- Apache&#45;&#45;Kibana -->
<g id="edge3" class="edge"><title>Apache&#45;&#45;Kibana</title>
<path fill="none" stroke="black" d="M521.331,-290.666C539.396,-278.506 565.165,-261.162 583.121,-249.076"/>
</g>
<!-- Logstash -->
<g id="node5" class="node"><title>Logstash</title>
<g id="a_node5"><a xlink:href="https://jujucharms.com/logstash/" xlink:title="Logstash">
<ellipse fill="none" stroke="black" cx="361.034" cy="-18" rx="45.9977" ry="18"/>
<text text-anchor="middle" x="361.034" y="-13.8" font-family="Marcellus" font-size="14.00">Logstash</text>
</a>
</g>
</g>
<!-- Apache&#45;&#45;Logstash -->
<g id="edge5" class="edge"><title>Apache&#45;&#45;Logstash</title>
<path fill="none" stroke="black" d="M539.682,-303.243C575.381,-299.306 625.97,-287.36 651.034,-252 660.286,-238.947 654.218,-231.68 651.034,-216 637.201,-147.885 643.249,-116.711 590.034,-72 562.305,-48.7025 462.937,-32.2325 404.604,-24.3223"/>
</g>
<!-- Honeycomb -->
<g id="node6" class="node"><title>Honeycomb</title>
<g id="a_node6"><a xlink:href="https://github.com/OpenFurry/honeycomb" xlink:title="Honeycomb">
<ellipse fill="none" stroke="black" cx="211.034" cy="-162" rx="57.0907" ry="18"/>
<text text-anchor="middle" x="211.034" y="-157.8" font-family="Marcellus" font-size="14.00">Honeycomb</text>
</a>
</g>
</g>
<!-- Apache&#45;&#45;Honeycomb -->
<g id="edge10" class="edge"><title>Apache&#45;&#45;Honeycomb</title>
<path fill="none" stroke="black" d="M460.1,-303.937C387.008,-301.058 236.24,-290.485 204.034,-252 187.223,-231.912 195.659,-199.56 203.333,-179.89"/>
</g>
<!-- Characters -->
<g id="node7" class="node"><title>Characters</title>
<g id="a_node7"><a xlink:href="https://github.com/OpenFurry/charref" xlink:title="Characters">
<ellipse fill="none" stroke="black" cx="538.034" cy="-162" rx="53.2142" ry="18"/>
<text text-anchor="middle" x="538.034" y="-157.8" font-family="Marcellus" font-size="14.00">Characters</text>
</a>
</g>
</g>
<!-- Apache&#45;&#45;Characters -->
<g id="edge11" class="edge"><title>Apache&#45;&#45;Characters</title>
<path fill="none" stroke="black" d="M504.617,-287.871C511.921,-260.578 526.12,-207.52 533.434,-180.189"/>
</g>
<!-- Characters&#45;legacy -->
<g id="node8" class="node"><title>Characters&#45;legacy</title>
<g id="a_node8"><a xlink:href="https://characters.openfurry.org" xlink:title="Characters&#45;legacy">
<ellipse fill="none" stroke="black" cx="390.034" cy="-234" rx="81.7302" ry="18"/>
<text text-anchor="middle" x="390.034" y="-229.8" font-family="Marcellus" font-size="14.00">Characters&#45;legacy</text>
</a>
</g>
</g>
<!-- Apache&#45;&#45;Characters&#45;legacy -->
<g id="edge12" class="edge"><title>Apache&#45;&#45;Characters&#45;legacy</title>
<path fill="none" stroke="black" d="M477.774,-290.834C459.819,-279.409 434.546,-263.326 415.733,-251.354"/>
</g>
<!-- IdeaWheel -->
<g id="node9" class="node"><title>IdeaWheel</title>
<g id="a_node9"><a xlink:href="https://github.com/OpenFurry/ideawheel" xlink:title="IdeaWheel">
<ellipse fill="none" stroke="black" cx="414.034" cy="-162" rx="52.2709" ry="18"/>
<text text-anchor="middle" x="414.034" y="-157.8" font-family="Marcellus" font-size="14.00">IdeaWheel</text>
</a>
</g>
</g>
<!-- Apache&#45;&#45;IdeaWheel -->
<g id="edge13" class="edge"><title>Apache&#45;&#45;IdeaWheel</title>
<path fill="none" stroke="black" d="M499.772,-287.995C498.755,-269.086 494.875,-238.278 481.034,-216 471.093,-200.001 454.526,-186.832 440.354,-177.623"/>
</g>
<!-- Postgres -->
<g id="node3" class="node"><title>Postgres</title>
<g id="a_node3"><a xlink:href="https://jujucharms.com/postgresql/" xlink:title="Postgres">
<ellipse fill="none" stroke="black" cx="361.034" cy="-90" rx="45.0114" ry="18"/>
<text text-anchor="middle" x="361.034" y="-85.8" font-family="Marcellus" font-size="14.00">Postgres</text>
</a>
</g>
</g>
<!-- velruse&#45;&#45;Postgres -->
<g id="edge2" class="edge"><title>velruse&#45;&#45;Postgres</title>
<path fill="none" stroke="black" d="M264.537,-216.711C285.451,-189.465 327.3,-134.946 348.34,-107.537"/>
</g>
<!-- velruse&#45;&#45;Logstash -->
<g id="edge6" class="edge"><title>velruse&#45;&#45;Logstash</title>
<path fill="none" stroke="black" d="M218.061,-225.253C137.763,-205.461 -52.1903,-149.107 14.0337,-72 52.3004,-27.4447 229.658,-19.9376 314.962,-18.9478"/>
</g>
<!-- velruse&#45;&#45;Honeycomb -->
<g id="edge7" class="edge"><title>velruse&#45;&#45;Honeycomb</title>
<path fill="none" stroke="black" d="M242.317,-216.411C235.876,-205.414 227.45,-191.027 220.965,-179.956"/>
</g>
<!-- velruse&#45;&#45;Characters -->
<g id="edge8" class="edge"><title>velruse&#45;&#45;Characters</title>
<path fill="none" stroke="black" d="M280.651,-221.902C286.671,-219.778 293.02,-217.693 299.034,-216 375.888,-194.364 397.343,-198.409 475.034,-180 482.53,-178.224 490.488,-176.192 498.135,-174.165"/>
</g>
<!-- velruse&#45;&#45;IdeaWheel -->
<g id="edge9" class="edge"><title>velruse&#45;&#45;IdeaWheel</title>
<path fill="none" stroke="black" d="M279.515,-221.125C308.131,-208.76 352.878,-189.425 382.812,-176.491"/>
</g>
<!-- Postgres&#45;&#45;Logstash -->
<g id="edge21" class="edge"><title>Postgres&#45;&#45;Logstash</title>
<path fill="none" stroke="black" d="M361.034,-71.6966C361.034,-60.8463 361.034,-46.9167 361.034,-36.1043"/>
</g>
<!-- Kibana&#45;&#45;Logstash -->
<g id="edge4" class="edge"><title>Kibana&#45;&#45;Logstash</title>
<path fill="none" stroke="black" d="M605.528,-215.902C607.419,-182.116 606.134,-107.046 562.034,-72 517.252,-36.4124 450.872,-24.5755 406.805,-20.7212"/>
</g>
<!-- Honeycomb&#45;&#45;Postgres -->
<g id="edge24" class="edge"><title>Honeycomb&#45;&#45;Postgres</title>
<path fill="none" stroke="black" d="M241.75,-146.666C268.492,-134.186 306.937,-116.245 332.891,-104.133"/>
</g>
<!-- Honeycomb&#45;&#45;Logstash -->
<g id="edge17" class="edge"><title>Honeycomb&#45;&#45;Logstash</title>
<path fill="none" stroke="black" d="M158.49,-154.583C90.7025,-144.232 -13.9231,-119.968 27.0337,-72 63.5371,-29.2474 232.326,-20.7993 315.062,-19.2562"/>
</g>
<!-- Gunicorn -->
<g id="node10" class="node"><title>Gunicorn</title>
<g id="a_node10"><a xlink:href="https://jujucharms.com/gunicorn/s" xlink:title="Gunicorn">
<polygon fill="none" stroke="black" points="534.341,-108 461.727,-108 461.727,-72 534.341,-72 534.341,-108"/>
<text text-anchor="middle" x="498.034" y="-85.8" font-family="Marcellus" font-size="14.00">Gunicorn</text>
</a>
</g>
</g>
<!-- Honeycomb&#45;&#45;Gunicorn -->
<g id="edge14" class="edge"><title>Honeycomb&#45;&#45;Gunicorn</title>
<path fill="none" stroke="black" d="M254.935,-150.292C311.465,-136.505 408.684,-112.793 461.425,-99.9289"/>
</g>
<!-- ElasticSearch -->
<g id="node11" class="node"><title>ElasticSearch</title>
<g id="a_node11"><a xlink:href="https://jujucharms.com/elasticsearch/" xlink:title="ElasticSearch">
<ellipse fill="none" stroke="black" cx="100.034" cy="-90" rx="64.3479" ry="18"/>
<text text-anchor="middle" x="100.034" y="-85.8" font-family="Marcellus" font-size="14.00">ElasticSearch</text>
</a>
</g>
</g>
<!-- Honeycomb&#45;&#45;ElasticSearch -->
<g id="edge25" class="edge"><title>Honeycomb&#45;&#45;ElasticSearch</title>
<path fill="none" stroke="black" d="M186.674,-145.638C168.422,-134.128 143.527,-118.428 125.105,-106.811"/>
</g>
<!-- Memcached -->
<g id="node12" class="node"><title>Memcached</title>
<g id="a_node12"><a xlink:href="https://jujucharms.com/memcached/" xlink:title="Memcached">
<ellipse fill="none" stroke="black" cx="240.034" cy="-90" rx="58.0513" ry="18"/>
<text text-anchor="middle" x="240.034" y="-85.8" font-family="Marcellus" font-size="14.00">Memcached</text>
</a>
</g>
</g>
<!-- Honeycomb&#45;&#45;Memcached -->
<g id="edge23" class="edge"><title>Honeycomb&#45;&#45;Memcached</title>
<path fill="none" stroke="black" d="M218.054,-144.055C222.546,-133.211 228.358,-119.183 232.877,-108.275"/>
</g>
<!-- Characters&#45;&#45;Postgres -->
<g id="edge26" class="edge"><title>Characters&#45;&#45;Postgres</title>
<path fill="none" stroke="black" d="M504.741,-147.834C472.295,-135.002 423.366,-115.651 391.808,-103.171"/>
</g>
<!-- Characters&#45;&#45;Logstash -->
<g id="edge18" class="edge"><title>Characters&#45;&#45;Logstash</title>
<path fill="none" stroke="black" d="M544.931,-144.052C551.608,-124.626 558.638,-92.7961 543.034,-72 526.245,-49.6249 451.496,-33.5949 403.168,-25.3498"/>
</g>
<!-- Characters&#45;&#45;Gunicorn -->
<g id="edge15" class="edge"><title>Characters&#45;&#45;Gunicorn</title>
<path fill="none" stroke="black" d="M528.351,-144.055C522.154,-133.211 514.138,-119.183 507.905,-108.275"/>
</g>
<!-- Characters&#45;legacy&#45;&#45;Postgres -->
<g id="edge27" class="edge"><title>Characters&#45;legacy&#45;&#45;Postgres</title>
<path fill="none" stroke="black" d="M374.382,-216.314C366.306,-206.538 357.276,-193.488 353.034,-180 345.447,-155.878 350.764,-126.392 355.63,-108.152"/>
</g>
<!-- IdeaWheel&#45;&#45;Postgres -->
<g id="edge28" class="edge"><title>IdeaWheel&#45;&#45;Postgres</title>
<path fill="none" stroke="black" d="M401.473,-144.411C393.025,-133.252 381.934,-118.604 373.504,-107.47"/>
</g>
<!-- IdeaWheel&#45;&#45;Logstash -->
<g id="edge19" class="edge"><title>IdeaWheel&#45;&#45;Logstash</title>
<path fill="none" stroke="black" d="M418.128,-143.832C421.672,-125.321 424.841,-95.3673 415.034,-72 408.527,-56.496 395.027,-43.246 383.153,-33.872"/>
</g>
<!-- IdeaWheel&#45;&#45;Gunicorn -->
<g id="edge16" class="edge"><title>IdeaWheel&#45;&#45;Gunicorn</title>
<path fill="none" stroke="black" d="M433.095,-145.116C446.358,-134.063 464.023,-119.342 477.581,-108.044"/>
</g>
<!-- ElasticSearch&#45;&#45;Logstash -->
<g id="edge22" class="edge"><title>ElasticSearch&#45;&#45;Logstash</title>
<path fill="none" stroke="black" d="M144.605,-77.0461C195.272,-63.4572 277.048,-41.5249 324.238,-28.8687"/>
</g>
<!-- Memcached&#45;&#45;Logstash -->
<g id="edge20" class="edge"><title>Memcached&#45;&#45;Logstash</title>
<path fill="none" stroke="black" d="M266.289,-73.811C287.002,-61.8284 315.699,-45.2265 336.07,-33.4417"/>
</g>
</g>
</svg>
